<svg width="24" height="24" fill="none" xmlns="http://www.w3.org/2000/svg"><path d="M19.126 3.862c-.55.217-16.176 6.805-16.176 6.805s-.757.259-.697.737c.06.478.677.697.677.697l4.022 1.353s1.214 3.982 1.453 4.738c.24.757.43.775.43.775.223.097.426-.058.426-.058l2.599-2.37 4.05 3.106c1.096.478 1.494-.517 1.494-.517l2.79-14.298c.248-1.107-.487-1.197-1.068-.968z" stroke="#fff" stroke-width="2" stroke-miterlimit="10"/><path d="M17.144 7.323c.02-.338-.451-.097-.451-.097l-9.824 6.085 1.536 4.882c.239.756.566.885.566.885l.733-4.667s6.943-6.47 7.241-6.75c.299-.278.2-.338.2-.338z" fill="#fff"/></svg>