<svg width="21" height="17" fill="none" xmlns="http://www.w3.org/2000/svg"><path d="M17.81 4.695a.806.806 0 01.178.674l-.755 4.08a.76.76 0 01-.307.525.969.969 0 01-.606.206h-11l-.22 1.16h10.485c.252 0 .47.084.656.253a.813.813 0 01.278.627c0 .25-.093.458-.278.627a.942.942 0 01-.656.253H3.988a.945.945 0 01-.714-.319.873.873 0 01-.219-.73l.497-2.545-.755-7.15-2.145-.637A.882.882 0 01.036.615.839.839 0 01.504.1c.232-.106.467-.128.705-.065l2.74.823c.173.05.315.144.428.281a.95.95 0 01.208.468l.159 1.423 12.43 1.31c.279.037.49.156.636.355zM5.397 13.586c.398 0 .735.131 1.013.393.278.262.417.58.417.955 0 .374-.139.696-.417.964a1.404 1.404 0 01-1.013.402c-.397 0-.734-.134-1.012-.402a1.292 1.292 0 01-.417-.964c0-.374.139-.693.417-.955a1.422 1.422 0 011.012-.393zm8.48 0c.397 0 .734.131 1.012.393s.417.58.417.955c0 .374-.139.696-.417.964a1.404 1.404 0 01-1.012.402c-.398 0-.735-.134-1.013-.402a1.293 1.293 0 01-.417-.964c0-.374.139-.693.417-.955a1.422 1.422 0 011.013-.393z" fill="#fff"/><circle cx="17" cy="4.463" r="4" fill="#2EF30E"/></svg>