<svg width="42" height="42" fill="none" xmlns="http://www.w3.org/2000/svg"><circle cx="21" cy="21" r="20.5" stroke="#fff"/><path d="M30.881 27.601c-.898-1.617-3.213-3.56-4.168-4.405a.621.621 0 01-.052-.888c1.824-1.96 3.282-4.211 3.784-5.572.222-.6-.237-1.236-.883-1.236h-1.876c-.619 0-.98.222-1.153.576-1.516 3.105-2.816 4.45-3.726 5.235-.51.44-1.304.075-1.304-.594v-4.14c0-.574-.469-1.038-1.047-1.038l-3.428-.039a.52.52 0 00-.42.831l.567.813c.213.281.328.624.328.975l-.003 3.66c0 .636-.772.947-1.23.5-1.55-1.508-2.894-4.59-3.378-6.063a1.044 1.044 0 00-.992-.716l-1.849-.004c-.693 0-1.2.657-1.012 1.32 1.69 5.928 5.155 11.568 11.33 12.18a1.04 1.04 0 001.134-1.037v-1.923c0-.552.433-1.026.989-1.04h.058c1.634 0 3.463 2.377 4.103 3.49.184.32.528.514.9.514h2.487c.725 0 1.19-.77.841-1.399z" fill="#fff"/></svg>